HIERARCHY
ROOT Hips
{
 OFFSET 0.000000 0.000000 0.000000
 CHANNELS 6 Xposition Yposition Zposition Yrotation Xrotation Zrotation
 JOINT Chest
 {
  OFFSET 0.000000 10.354800 0.006500
  CHANNELS 3 Yrotation Xrotation Zrotation
  JOINT Chest2
  {
   OFFSET 0.000000 10.435800 -0.013200
   CHANNELS 3 Yrotation Xrotation Zrotation
   JOINT Chest3
   {
    OFFSET 0.000000 10.393700 0.000000
    CHANNELS 3 Yrotation Xrotation Zrotation
    JOINT Chest4
    {
     OFFSET 0.000000 10.383100 0.000000
     CHANNELS 3 Yrotation Xrotation Zrotation
     JOINT Neck
     {
      OFFSET 0.000000 15.694000 0.000000
      CHANNELS 3 Yrotation Xrotation Zrotation
      JOINT Head
      {
       OFFSET 0.000000 9.711000 -0.028000
       CHANNELS 3 Yrotation Xrotation Zrotation
       End Site
       {
        OFFSET 0.000000 18.578700 -0.014800
       }
      }
     }
     JOINT RightCollar
     {
      OFFSET -3.157200 10.367500 0.000000
      CHANNELS 3 Yrotation Xrotation Zrotation
      JOINT RightShoulder
      {
       OFFSET -14.482500 0.000000 0.000000
       CHANNELS 3 Yrotation Xrotation Zrotation
       JOINT RightElbow
       {
        OFFSET 0.000000 -31.707800 0.000000
        CHANNELS 3 Yrotation Xrotation Zrotation
        JOINT RightWrist
        {
         OFFSET 0.000000 -25.659300 0.000000
         CHANNELS 3 Yrotation Xrotation Zrotation
         End Site
         {
          OFFSET 0.000000 -18.994300 0.000000
         }
        }
       }
      }
     }
     JOINT LeftCollar
     {
      OFFSET 3.157200 10.367500 0.000000
      CHANNELS 3 Yrotation Xrotation Zrotation
      JOINT LeftShoulder
      {
       OFFSET 14.482500 0.000000 0.000000
       CHANNELS 3 Yrotation Xrotation Zrotation
       JOINT LeftElbow
       {
        OFFSET 0.000000 -31.707800 0.000000
        CHANNELS 3 Yrotation Xrotation Zrotation
        JOINT LeftWrist
        {
         OFFSET 0.000000 -25.659300 0.000000
         CHANNELS 3 Yrotation Xrotation Zrotation
         End Site
         {
          OFFSET 0.000000 -18.994300 0.000000
         }
        }
       }
      }
     }
    }
   }
  }
 }
 JOINT RightHip
 {
  OFFSET -8.365600 -0.032100 -0.003200
  CHANNELS 3 Yrotation Xrotation Zrotation
  JOINT RightKnee
  {
   OFFSET 0.000000 -43.980000 0.003100
   CHANNELS 3 Yrotation Xrotation Zrotation
   JOINT RightAnkle
   {
    OFFSET 0.000000 -42.882800 0.005200
    CHANNELS 3 Yrotation Xrotation Zrotation
    JOINT RightToe
    {
     OFFSET 0.000000 -4.915500 10.826300
     CHANNELS 3 Yrotation Xrotation Zrotation
     End Site
     {
      OFFSET 0.000000 -1.517500 6.175900
     }
    }
   }
  }
 }
 JOINT LeftHip
 {
  OFFSET 8.365600 -0.032100 -0.003200
  CHANNELS 3 Yrotation Xrotation Zrotation
  JOINT LeftKnee
  {
   OFFSET 0.000000 -43.980000 0.003100
   CHANNELS 3 Yrotation Xrotation Zrotation
   JOINT LeftAnkle
   {
    OFFSET 0.000000 -42.882800 0.005200
    CHANNELS 3 Yrotation Xrotation Zrotation
    JOINT LeftToe
    {
     OFFSET 0.000000 -4.915500 10.826300
     CHANNELS 3 Yrotation Xrotation Zrotation
     End Site
     {
      OFFSET 0.000000 -1.517500 6.175900
     }
    }
   }
  }
 }
}
MOTION
Frames: 7
Frame Time: 0.008333
0.000000 91.618600 0.000000 0.000000 -5.767877 0.000000 0.000000 11.653817 0.000000 0.000000 -5.885947 0.000000 0.000000 -0.000000 0.000000 0.000000 -0.000000 0.000000 0.000000 12.528835 0.000000 0.000000 0.711642 0.000000 0.000000 -0.000000 0.000000 0.000000 0.000000 -90.000000 0.000000 -2.309062 0.000000 0.000000 2.309062 0.000000 0.000000 -0.000000 0.000000 0.000000 -0.000000 90.000000 0.000000 -2.309062 0.000000 0.000000 2.309062 0.000000 0.000000 8.520406 0.000000 0.000000 1.905762 0.000000 -0.000000 -4.658285 0.000000 0.000000 -0.000000 0.000000 0.000000 8.520406 0.000000 0.000000 1.905762 0.000000 -0.000000 -4.658285 0.000000 0.000000 -0.000000 0.000000
5.193850 126.567389 45.483808 170.679519 -21.345043 -3.780057 1.095057 13.844809 3.445203 0.038891 1.233390 0.282588 0.128624 2.031049 0.489522 0.896956 12.480487 3.062415 3.800876 19.244083 -6.282190 5.609394 -4.999112 -7.745717 1.668493 9.087856 -7.153548 -13.504222 -4.760521 -4.885206 -129.073459 -53.693552 153.421101 -21.305929 -13.623657 -28.343647 2.186933 11.353332 4.002613 16.478959 -3.171654 -6.983400 157.505785 -54.769968 179.950020 20.062967 -5.166689 34.648658 7.953099 -61.215463 -1.790196 -84.182994 79.236259 -77.332075 4.703201 8.239156 -16.862468 0.002087 -0.004568 0.000947 -16.316678 -61.150507 2.095318 106.045142 83.620449 101.213172 -6.827374 -23.556519 0.069679 -0.000711 -0.001570 -0.000323
5.193753 126.563609 45.481777 170.672615 -21.282082 -3.784004 1.057931 13.840232 3.432630 0.070335 1.187696 0.288612 0.117415 2.029114 0.486583 0.878691 12.455552 3.060345 3.907599 19.279624 -6.297837 5.732608 -4.950403 -7.791994 1.660574 9.120561 -7.123946 -13.492202 -4.780226 -4.928163 -128.658300 -53.502770 153.296310 -21.460766 -13.196576 -27.890919 2.170468 11.383745 3.972922 16.627068 -3.055852 -6.997972 157.454110 -54.554893 179.973913 20.077258 -5.246094 34.368315 7.950283 -61.278905 -1.798021 -84.200021 79.241280 -77.345377 4.703774 8.237658 -16.860902 -0.000160 -0.002177 -0.000072 -16.317150 -61.212590 2.109377 106.037835 83.609923 101.221426 -6.837128 -23.562115 0.071392 -0.002028 -0.002941 -0.000921
5.194163 126.559654 45.478912 170.667129 -21.214319 -3.792637 1.039632 13.806424 3.430898 0.079989 1.166616 0.292546 0.101921 2.030258 0.483358 0.864018 12.429133 3.056263 4.002523 19.309569 -6.310730 5.842007 -4.908938 -7.831982 1.679196 9.144121 -7.108388 -13.558988 -4.782820 -4.971481 -128.191350 -53.291790 153.167889 -21.626465 -12.742355 -27.380135 2.150819 11.407971 3.936882 16.775453 -2.948005 -7.007799 157.462334 -54.346369 179.969757 20.079810 -5.346894 34.057440 7.931261 -61.344996 -1.792642 -84.189551 79.250342 -77.333033 4.707468 8.237168 -16.863317 -0.002035 0.000084 -0.000924 -16.328123 -61.279865 2.129371 106.022872 83.597033 101.221638 -6.805285 -23.552595 0.066750 0.001218 -0.002025 0.000553
5.194308 126.555899 45.474818 170.658355 -21.148882 -3.799436 1.023420 13.772625 3.428086 0.080837 1.164380 0.290594 0.077625 2.031076 0.476382 0.881763 12.390574 3.062440 4.068554 19.324979 -6.322212 5.930137 -4.880350 -7.865231 1.644714 9.183277 -7.070075 -13.599970 -4.827008 -5.035362 -127.719698 -53.090627 153.048181 -21.786168 -12.286148 -26.836479 2.102912 11.426675 3.890230 16.935581 -2.852746 -7.012149 157.538239 -54.152174 179.936181 20.072678 -5.472056 33.721739 7.909706 -61.406642 -1.789507 -84.162679 79.262190 -77.300871 4.720986 8.237358 -16.872524 -0.004004 0.001887 -0.001818 -16.332452 -61.344927 2.144330 106.008436 83.588140 101.226490 -6.798696 -23.548333 0.066649 0.002580 -0.002422 0.001171
5.195164 126.552438 45.470512 170.643587 -21.086924 -3.809435 1.024878 13.724564 3.436788 0.067337 1.175381 0.287020 0.096647 2.009740 0.480597 0.878562 12.383623 3.061798 4.090985 19.327293 -6.328097 5.968062 -4.870046 -7.880478 1.592813 9.225262 -7.040757 -13.639312 -4.894910 -5.082024 -127.257478 -52.912318 152.938202 -21.923220 -11.855899 -26.283761 1.957521 11.457488 3.808894 17.167343 -2.793844 -7.002703 157.690742 -53.983856 179.872083 20.055511 -5.628470 33.369569 7.904349 -61.469897 -1.779298 -84.154045 79.258885 -77.273962 4.722887 8.243742 -16.892943 0.002042 -0.002116 0.000927 -16.337204 -61.407997 2.164938 106.004188 83.584233 101.238805 -6.776751 -23.527886 0.068868 0.003331 -0.001085 0.001512
5.195471 126.549644 45.465330 170.626774 -21.036112 -3.816416 1.028282 13.686130 3.443114 0.053789 1.182579 0.283001 0.094450 2.000718 0.479424 0.866175 12.357776 3.060311 4.110557 19.314491 -6.346420 6.027353 -4.844123 -7.889819 1.592210 9.277200 -7.028622 -13.697701 -4.980145 -5.114164 -126.769512 -52.765043 152.807099 -22.037662 -11.470310 -25.718704 1.876637 11.494584 3.756251 17.358750 -2.746413 -7.010239 157.897714 -53.856023 179.802415 20.005405 -5.824114 32.999879 7.909048 -61.520487 -1.772188 -84.152646 79.261790 -77.262191 4.714331 8.243149 -16.898990 0.003847 -0.002480 0.001747 -16.333132 -61.462595 2.178150 106.038578 83.584464 101.285744 -6.764701 -23.499104 0.073702 0.002716 0.000756 0.001233
